<svg width="693" height="201" viewBox="0 0 693 201" fill="none" xmlns="http://www.w3.org/2000/svg">
<g clip-path="url(#clip0_2226_337166)">
<path d="M72.3 12.2013C76.7 14.0013 81 16.5013 85.3 19.8013C86.5 20.7013 87.5 21.2013 88.3 21.2013C90.4 21.2013 91.8 18.0013 92.4 11.7013H96C95.6 18.9013 95.4 31.6013 95.4 49.9013H91.8C90.9 42.1013 89.6 36.2013 88 32.1013C86.4 28.0013 83.7 24.4013 79.9 21.4013C77.3 18.9013 74.2 17.0013 70.7 15.6013C67.2 14.3013 63.6 13.6013 59.8 13.6013C49.2 13.6013 41.3 18.8013 36.1 29.2013C30.9 39.6013 28.4 52.5013 28.4 68.0013C28.4 83.4013 31.1 96.2013 36.5 106.501C41.9 116.801 49.9 122.001 60.5 122.001C64.1 122.001 67.6 121.301 71.2 120.001C74.7 118.701 77.7 116.801 80.1 114.201C84 111.301 86.7 107.601 88.2 103.101C89.7 98.7013 90.9 92.2013 91.8 83.7013H95.4C95.4 102.801 95.6 116.001 96 123.501H92.4C92.1 120.101 91.6 117.701 91.1 116.301C90.5 114.901 89.7 114.201 88.7 114.201C87.9 114.201 86.8 114.601 85.4 115.501C80.7 118.901 76.1 121.401 71.8 123.201C67.5 124.901 62.3 125.801 56.2 125.801C45 125.801 35.3 123.501 26.9 119.001C18.5 114.501 12 107.901 7.4 99.3013C2.8 90.7013 0.5 80.5013 0.5 68.6013C0.5 57.0013 2.9 46.8013 7.6 37.8013C12.3 28.9013 18.9 21.9013 27.4 17.0013C35.9 12.1013 45.5 9.60126 56.4 9.60126C62.5 9.50126 67.9 10.4013 72.3 12.2013V12.2013Z" fill="#002B49"/>
<path d="M133.4 54.3C138.1 44.5 146.7 39.6 159.1 39.6C167.3 39.6 173.1 41.7 176.5 45.8C178.3 47.8 179.6 50.4 180.4 53.6C181.2 56.8 181.6 61 181.6 66.3V108.8C181.6 113.1 182.3 116.1 183.8 117.7C185.3 119.3 187.9 120.1 191.7 120.1V123.4C180.7 123 160.4 123 150.3 123.4V120.1C153.5 120.1 155.7 119.3 156.9 117.7C158.2 116.1 158.8 113.1 158.8 108.8V59.7C158.8 55.4 158.1 52.1 156.7 49.9C155.3 47.7 152.7 46.6 149 46.6C144.6 46.6 140.9 48.3 137.9 51.7C134.9 55.1 133.4 59.5 133.4 64.7V108.8C133.4 113.1 134 116.1 135.3 117.7C136.6 119.3 138.8 120.1 141.9 120.1V123.4C131.8 123 111.5 123 100.5 123.4V120.1C104.2 120.1 106.8 119.3 108.3 117.7C109.8 116.1 110.6 113.1 110.6 108.8V18.9C110.6 14.1 109.8 10.5 108.3 8.3C106.8 6.1 104.2 5 100.5 5V1.7C103.9 2 107.1 2.2 110.3 2.2C119.5 2.2 127.1 1.5 133.4 0V54.3V54.3Z" fill="#002B49"/>
<path d="M398.4 117.699C399.9 119.299 402.5 120.099 406.2 120.099V123.399C395.7 122.999 375.9 122.999 365.8 123.399V120.099C368.6 120.099 370.6 119.299 371.7 117.699C372.8 116.099 373.4 113.099 373.4 108.699V59.6992C373.4 55.2992 372.7 51.9992 371.4 49.7992C370.1 47.5992 367.6 46.5992 363.9 46.5992C360 46.5992 356.6 48.1992 353.7 51.4992C350.8 54.7992 349.1 58.7992 348.6 63.4992V66.2992V108.799C348.6 113.099 349.3 116.099 350.6 117.699C351.9 119.299 354.3 120.099 357.8 120.099V123.399C347.7 122.999 328.4 122.999 318.3 123.399V120.099C321.1 120.099 323.1 119.299 324.2 117.699C325.3 116.099 325.9 113.099 325.9 108.799V59.6992C325.9 55.2992 325.3 51.9992 324.2 49.7992C323 47.5992 320.8 46.5992 317.4 46.5992C313.2 46.5992 309.6 48.3992 306.6 51.8992C303.6 55.3992 302.1 59.7992 302.1 64.8992V108.799C302.1 113.099 302.7 116.099 303.8 117.699C304.9 119.299 306.9 120.099 309.7 120.099V123.399C300.4 122.999 280.6 122.999 269.3 123.399V120.099C273.1 120.099 275.7 119.299 277.2 117.699C278.7 116.099 279.4 113.099 279.4 108.799V59.0992C279.4 54.2992 278.7 50.6992 277.2 48.4992C275.7 46.2992 273.1 45.1992 269.3 45.1992V41.8992C272.7 42.1992 275.9 42.3992 279.1 42.3992C288.5 42.3992 296.2 41.6992 302.2 40.1992V54.3992C306.8 44.5992 315 39.6992 326.7 39.6992C334.7 39.6992 340.5 41.7992 344.1 45.8992C346.1 47.9992 347.4 51.1992 348 55.3992C350.7 49.6992 354.3 45.6992 358.7 43.2992C363.1 40.8992 368.3 39.6992 374.2 39.6992C382.2 39.6992 388 41.7992 391.6 45.8992C393.3 47.7992 394.5 50.3992 395.2 53.5992C395.9 56.8992 396.3 61.0992 396.3 66.3992V108.899C396.1 113.099 396.8 116.099 398.4 117.699V117.699Z" fill="#002B49"/>
<path d="M479 50.1C484.3 57.1 486.9 67.2 486.9 80.5C486.9 96 483.5 107.4 476.8 114.7C470.1 122 461.4 125.7 450.7 125.7C443.4 125.7 437.5 123.9 433 120.2C429.2 119.9 425.4 120.3 421.6 121.5C417.8 122.7 414.8 124.2 412.6 126.1L410.2 124.7C410.9 122.1 411.3 119.1 411.3 115.9V18.9C411.3 14.1 410.5 10.5 409 8.3C407.5 6.1 404.9 5 401.2 5V1.7C404.5 2 407.7 2.2 411 2.2C420.2 2.2 427.8 1.5 434.1 0V54.6C436.3 49.8 439.5 46 443.7 43.5C447.9 40.9 452.8 39.6 458.2 39.6C466.8 39.6 473.7 43.1 479 50.1V50.1ZM458.7 112.6C461.5 106.1 463 96.1 463 82.8C463 69.8 461.8 60.6 459.4 54.9C457 49.3 453.5 46.5 449 46.5C445.6 46.5 442.5 47.7 439.8 50.2C437 52.7 435.1 56 434.2 60.2V118.2C437.7 121 441.6 122.5 445.9 122.5C451.6 122.4 455.9 119.1 458.7 112.6Z" fill="#002B49"/>
<path d="M558.6 100.102L561.4 101.002C559.3 107.802 555.5 113.702 550.1 118.502C544.7 123.302 537.9 125.702 529.8 125.702C518.6 125.702 509.8 122.102 503.2 115.002C496.6 107.902 493.3 97.4016 493.3 83.5016C493.3 69.3016 496.8 58.4016 503.9 50.9016C511 43.4016 520.3 39.6016 532 39.6016C551.8 39.6016 561.7 51.3016 561.7 74.7016H517.3C517.2 76.3016 517.1 78.8016 517.1 82.1016C517.1 89.0016 518.1 94.8016 520 99.5016C521.9 104.102 524.5 107.502 527.6 109.602C530.7 111.702 534 112.802 537.6 112.802C546.4 112.802 553.3 108.502 558.6 100.102V100.102ZM521.7 50.0016C519.2 54.7016 517.7 61.9016 517 71.7016H541.8C542 63.4016 541.2 56.5016 539.4 51.1016C537.6 45.7016 534.8 43.0016 531.1 43.0016C527.3 43.0016 524.2 45.3016 521.7 50.0016V50.0016Z" fill="#002B49"/>
<path d="M627.7 43.9C630.1 46.7 631.3 50.2 631.3 54.2C631.3 58.1 630.2 61.3 627.9 63.8C625.6 66.3 622.7 67.5 619 67.5C615.4 67.5 612.6 66.6 610.5 64.7C608.4 62.9 607.3 60.4 607.3 57.4C607.3 52.3 609.6 48.2 614.2 45.1C613.8 45 613.1 44.9 612.3 44.9C611.2 44.9 610.4 45 609.8 45.2C605.8 45.8 602.4 48.3 599.6 52.5C596.8 56.7 595.4 61 595.4 65.5V107.4C595.4 112.2 596.6 115.6 599 117.5C601.4 119.4 605.1 120.3 610.3 120.3V123.6C608.8 123.6 607.6 123.5 606.7 123.4C596 123.1 575.9 123.1 565.8 123.4C565 123.5 563.9 123.6 562.6 123.6V120.3C566.4 120.3 569 119.5 570.5 117.9C572 116.3 572.7 113.3 572.7 109V59.1C572.7 54.3 572 50.7 570.5 48.5C569 46.3 566.4 45.2 562.6 45.2V41.9C566 42.2 569.2 42.4 572.4 42.4C581.8 42.4 589.5 41.7 595.5 40.2V54.9C597.5 50.4 600.4 46.7 604.2 43.9C608 41.1 612.3 39.7 617 39.7C621.7 39.6 625.3 41.1 627.7 43.9V43.9Z" fill="#002B49"/>
<path d="M671.4 41.1C674.8 42.1 677.3 43.2 679.1 44.5C680.2 45.2 681.1 45.6 681.9 45.6C682.8 45.6 683.7 45.1 684.3 44.1C685 43.1 685.4 41.7 685.6 39.8H688.9C688.5 45.2 688.3 54.4 688.3 67.6H685C684.1 60.7 682 54.8 678.8 50.1C675.6 45.4 670.9 43.1 664.8 43.1C661.6 43.1 659 44 657 45.8C654.9 47.6 653.9 50.1 653.9 53.2C653.9 56.8 655.1 59.9 657.5 62.4C659.9 65 663.7 68.1 668.9 71.8L673.5 75.1C679.9 79.9 684.7 84.3 687.7 88.1C690.8 91.9 692.3 96.6 692.3 102.3C692.3 106.9 691 111 688.3 114.6C685.6 118.2 682 120.9 677.5 122.8C673 124.7 668 125.6 662.5 125.6C656.7 125.6 651.8 124.5 647.7 122.3C644.3 120.6 641.9 119.5 640.4 119C639.3 118.7 638.4 119 637.6 120C636.8 121 636.2 122.5 635.8 124.5H632.5C632.9 118.5 633.1 108 633.1 92.9H636.4C638.5 112.3 645.6 122 657.7 122C660.8 122 663.4 121.1 665.5 119.2C667.7 117.4 668.7 114.5 668.7 110.8C668.7 107.9 668 105.2 666.7 102.9C665.4 100.6 663.7 98.5 661.7 96.7C659.7 94.9 656.7 92.4 652.7 89.3C648 85.5 644.4 82.5 641.9 80.1C639.4 77.8 637.3 75 635.6 71.9C633.9 68.8 633 65.2 633 61.3C633 54.6 635.6 49.2 640.9 45.3C646.2 41.4 652.6 39.5 660.2 39.5C664.4 39.6 668 40.1 671.4 41.1V41.1Z" fill="#002B49"/>
<path d="M189.2 152.1C185.8 152.1 183.1 152 181.2 151.9V153.5C183.3 153.6 184.8 153.9 185.8 154.3C186.8 154.7 187.5 155.5 187.8 156.4C188.1 157.4 188.3 158.9 188.3 160.9V186.5L163.4 151.8C161.4 152 159 152 156.2 152C153.1 152 150.7 151.9 148.9 151.8V153.4C150.8 153.5 152.1 153.7 153 154C153.9 154.3 154.4 154.9 154.8 155.8C155.1 156.7 155.3 158.1 155.3 160.1V190.3C155.3 192.3 155.1 193.8 154.8 194.8C154.5 195.8 153.9 196.5 153 197C152.1 197.4 146.8 200 143.6 192.8L125.3 151.5H124.1L106.8 190.6C105.9 192.6 105 194.3 104 195.5C103 196.7 101.8 197.5 100.4 197.9V199.5C101.8 199.3 112.7 199.3 114.3 199.5V197.9C112.2 197.7 110.6 197.2 109.7 196.5C108.7 195.7 108.3 194.7 108.3 193.3C108.3 192 108.7 190.3 109.6 188.3L112.3 182.4H131.3L135.3 191.3C136 192.9 136.4 194.1 136.4 195C136.4 196 135.9 196.7 135 197.1C134.1 197.5 132.7 197.8 130.7 197.9V199.5C132.9 199.3 162.4 199.3 164.2 199.5V197.9C162.1 197.8 160.6 197.5 159.6 197.1C158.6 196.7 157.9 195.9 157.6 195C157.3 194 157.1 192.5 157.1 190.5V156.7L188.3 200H190.1V161C190.1 159 190.3 157.5 190.6 156.5C190.9 155.5 191.5 154.8 192.4 154.3C193.3 153.9 194.6 153.6 196.5 153.5V151.9C194.8 152 192.3 152.1 189.2 152.1V152.1ZM112.9 180.8L121.8 161L130.6 180.8H112.9Z" fill="#002B49"/>
<path d="M238.6 157.799C242.7 161.699 244.7 167.499 244.7 174.999C244.7 179.899 243.7 184.199 241.7 187.899C239.7 191.599 236.8 194.399 233.1 196.399C229.3 198.399 224.8 199.399 219.5 199.399L215 199.299C212.1 199.199 209.9 199.099 208.6 199.099C204.3 199.099 201.1 199.199 198.9 199.299V197.699C200.8 197.599 202.1 197.399 203 197.099C203.9 196.799 204.4 196.199 204.8 195.299C205.1 194.399 205.3 192.999 205.3 190.999V160.099C205.3 158.099 205.1 156.699 204.8 155.799C204.5 154.899 203.9 154.299 203 153.999C202.1 153.699 200.8 153.499 198.9 153.399V151.799C200.7 151.999 203.2 151.999 206.5 151.999L213.1 151.899C216.6 151.799 219 151.699 220.2 151.699C228.4 151.899 234.5 153.899 238.6 157.799V157.799ZM214.6 153.799C213.8 154.199 213.2 154.799 212.9 155.799C212.6 156.699 212.4 158.099 212.4 159.999V191.199C212.4 193.099 212.6 194.499 212.9 195.399C213.2 196.299 213.8 196.999 214.6 197.399C215.4 197.799 216.6 197.899 218.3 197.899C223 197.899 226.8 197.099 229.5 195.399C232.2 193.699 234.1 191.199 235.2 187.899C236.3 184.599 236.8 180.399 236.8 175.199C236.8 167.599 235.4 161.999 232.6 158.499C229.8 154.999 225 153.199 218.2 153.199C216.7 153.299 215.5 153.499 214.6 153.799V153.799Z" fill="#002B49"/>
<path d="M282.6 177.002V191.102C282.6 193.102 282.8 194.502 283.2 195.402C283.6 196.302 284.3 196.902 285.4 197.202C286.4 197.502 288.1 197.702 290.5 197.802V199.402C287.8 199.202 271.2 199.202 269 199.402V197.802C270.9 197.702 272.2 197.502 273.1 197.202C274 196.902 274.5 196.302 274.9 195.402C275.2 194.502 275.4 193.102 275.4 191.102V152.402C275.4 150.402 275.2 149.002 274.9 148.102C274.6 147.202 274 146.602 273.1 146.302C272.2 146.002 270.9 145.802 269 145.702V144.102C271.2 144.302 274.4 144.302 278.5 144.302L286.9 144.202C287.9 144.102 289 144.102 290.3 144.102C296.4 144.102 301.1 145.502 304.3 148.302C307.5 151.102 309.1 154.802 309.1 159.502C309.1 162.402 308.5 165.102 307.2 167.702C305.9 170.302 303.8 172.502 300.7 174.302C297.7 176.102 293.6 177.002 288.6 177.002H282.6V177.002ZM284.8 146.202C284 146.602 283.4 147.202 283.1 148.202C282.8 149.102 282.6 150.502 282.6 152.402V175.502H287.8C292.9 175.502 296.4 174.102 298.4 171.402C300.4 168.702 301.3 165.002 301.3 160.402C301.3 155.302 300.3 151.602 298.3 149.202C296.3 146.802 293 145.602 288.3 145.602C286.8 145.602 285.6 145.802 284.8 146.202Z" fill="#002B49"/>
<path d="M436.7 161.098C436.7 163.798 436.8 165.898 436.9 167.498H435.1C434.8 163.898 434.3 161.098 433.6 159.098C432.9 157.198 431.8 155.798 430.3 154.898C428.8 153.998 426.6 153.598 423.8 153.598H418.8V190.198C418.8 192.398 419 193.998 419.4 194.998C419.8 195.998 420.5 196.698 421.6 196.998C422.6 197.398 424.3 197.598 426.7 197.698V199.298C424 199.098 406.2 199.098 403.7 199.298V197.698C406 197.598 407.7 197.398 408.8 196.998C409.8 196.598 410.6 195.998 411 194.998C411.4 193.998 411.6 192.398 411.6 190.198V153.598H406.6C403.8 153.598 401.6 153.998 400.1 154.898C398.6 155.798 397.5 157.198 396.8 159.098C396.1 160.998 395.6 163.798 395.3 167.498H393.5C393.7 165.798 393.7 163.698 393.7 161.098C393.7 158.398 393.5 155.298 393.2 151.898C397.5 152.098 404.9 152.098 415.2 152.098C425.5 152.098 432.8 151.998 437.2 151.898C436.9 155.298 436.7 158.398 436.7 161.098Z" fill="#002B49"/>
<path d="M486.7 153.499C484.9 153.599 483.5 153.899 482.6 154.299C481.7 154.699 481.1 155.499 480.8 156.499C480.5 157.499 480.3 158.999 480.3 160.999V199.799H478.5L447.3 156.499V190.299C447.3 192.299 447.5 193.799 447.8 194.799C448.1 195.799 448.8 196.499 449.8 196.899C450.8 197.299 452.3 197.599 454.4 197.699V199.299C452.5 199.099 440.9 199.099 439.2 199.299V197.699C441 197.599 442.4 197.299 443.3 196.899C444.2 196.499 444.8 195.699 445.1 194.699C445.4 193.699 445.6 192.199 445.6 190.199V159.999C445.6 157.999 445.4 156.599 445.1 155.699C444.8 154.799 444.2 154.199 443.3 153.899C442.4 153.599 441.1 153.399 439.2 153.299V151.699C440.9 151.899 443.3 151.899 446.5 151.899C449.3 151.899 451.7 151.799 453.7 151.699L478.6 186.399V160.999C478.6 158.999 478.4 157.499 478.1 156.499C477.8 155.499 477.1 154.799 476.1 154.399C475.1 153.999 473.6 153.699 471.5 153.599V151.999C473.4 152.199 476 152.199 479.5 152.199C482.6 152.199 485 152.099 486.8 151.999V153.499H486.7V153.499Z" fill="#002B49"/>
<path d="M528 199.398C524.6 199.198 494 199.198 489 199.398V197.798C490.9 197.698 492.2 197.498 493.1 197.198C494 196.898 494.5 196.298 494.9 195.398C495.2 194.498 495.4 193.098 495.4 191.098V160.198C495.4 158.198 495.2 156.798 494.9 155.898C494.6 154.998 494 154.398 493.1 154.098C492.2 153.798 490.9 153.598 489 153.498V151.898C493.9 152.098 501.2 152.098 510.9 152.098C518.2 152.098 523.4 151.998 526.4 151.898C526 154.998 525.9 157.798 525.9 160.298C525.9 162.298 526 163.898 526.1 165.098H524.3C523.9 160.798 523 157.798 521.6 156.198C520.2 154.498 517.8 153.698 514.6 153.698H508.9C507 153.698 505.7 153.798 504.8 154.098C503.9 154.398 503.4 154.998 503 155.898C502.7 156.798 502.5 158.198 502.5 160.198V174.698H509C510.7 174.698 511.9 174.298 512.8 173.398C513.7 172.498 514.3 171.598 514.6 170.598C514.9 169.598 515.2 168.298 515.5 166.698H517.3C517.1 168.498 517.1 170.398 517.1 172.498V175.498C517.1 177.498 517.3 180.398 517.6 184.198H515.8C515.5 181.698 514.9 179.698 514 178.298C513.1 176.898 511.5 176.198 509.1 176.198H502.6V190.998C502.6 192.998 502.8 194.398 503.1 195.298C503.4 196.198 504 196.798 504.9 197.098C505.8 197.398 507.1 197.498 509 197.498H514.7C517.3 197.498 519.4 197.098 520.9 196.298C522.4 195.498 523.6 194.098 524.3 192.298C525.1 190.498 525.6 187.898 525.9 184.498H527.7C527.5 185.898 527.5 187.798 527.5 190.098C527.4 192.898 527.6 195.898 528 199.398V199.398Z" fill="#002B49"/>
<path d="M600.1 151.499C601.4 151.999 602.8 152.699 604.2 153.599C605.3 154.299 606.2 154.699 606.9 154.699C607.4 154.699 607.7 154.399 608 153.899C608.3 153.399 608.5 152.499 608.6 151.299H610.4C610.1 153.999 610 158.799 610 165.699H608.2C607.9 161.999 606.7 158.799 604.6 156.199C602.5 153.599 599.4 152.299 595.4 152.299C592.6 152.299 590.4 152.999 588.6 154.499C586.8 155.999 585.9 157.799 585.9 159.999C585.9 161.599 586.3 162.999 587.1 164.199C587.9 165.399 588.9 166.399 590.2 167.299C591.5 168.199 593.3 169.199 595.6 170.499L598.2 171.899C601.4 173.599 604 175.199 606 176.499C608 177.899 609.5 179.399 610.7 181.099C611.9 182.799 612.5 184.899 612.5 187.199C612.5 191.399 611 194.699 607.9 196.999C604.9 199.299 601 200.499 596.5 200.499C594 200.499 592 200.199 590.4 199.699C588.8 199.199 587.3 198.499 585.8 197.599C584.7 196.899 583.8 196.499 583.1 196.499C582.6 196.499 582.3 196.799 582 197.299C581.7 197.799 581.5 198.699 581.4 199.899H579.6C579.8 197.299 579.9 191.599 579.9 182.699H581.7C582.1 187.499 583.4 191.399 585.6 194.399C587.8 197.399 591.3 198.899 595.9 198.899C598.5 198.899 600.8 198.199 602.7 196.699C604.6 195.199 605.6 192.999 605.6 190.099C605.6 188.399 605.1 186.899 604.1 185.499C603.1 184.199 601.8 182.999 600.1 181.899C598.4 180.899 596.1 179.599 593.1 177.999C588.8 175.799 585.6 173.599 583.3 171.399C581.1 169.199 579.9 166.399 579.9 162.899C579.9 158.999 581.3 156.099 584.2 153.899C587 151.799 590.5 150.699 594.6 150.699C597 150.799 598.8 150.999 600.1 151.499V151.499Z" fill="#002B49"/>
<path d="M266.2 117.202C264.6 118.302 263.2 118.802 262 118.802C260.6 118.802 259.7 118.302 259.2 117.202C258.7 116.102 258.5 114.402 258.5 111.802V68.8016C258.5 63.0016 258.1 58.4016 257.3 55.1016C256.5 51.7016 255 48.9016 252.6 46.6016C250.1 44.1016 246.9 42.3016 243.1 41.2016C239.3 40.1016 234.8 39.6016 229.7 39.6016C224.7 39.6016 220.2 40.1016 216 41.0016C211.8 41.9016 208.3 43.3016 205.5 44.9016C202.6 46.7016 200.4 48.6016 198.9 50.7016C197.5 52.8016 196.8 55.3016 196.8 58.2016C196.8 61.7016 197.8 64.6016 199.8 66.9016C201.8 69.2016 204.6 70.4016 208.3 70.4016C211.8 70.4016 214.7 69.3016 217.1 67.2016C219.5 65.1016 220.7 62.3016 220.7 58.7016C220.7 55.9016 219.9 53.4016 218.3 51.3016C216.7 49.2016 214.4 47.6016 211.4 46.6016C214 44.1016 217.9 42.8016 222.9 42.8016C227.2 42.8016 230.4 44.0016 232.5 46.5016C234.6 49.0016 235.6 52.4016 235.6 56.8016V69.1016C235.6 71.9016 234.3 74.2016 231.6 75.8016C228.9 77.4016 224.7 79.2016 218.9 81.2016C213.4 83.1016 208.9 84.9016 205.4 86.6016C201.9 88.3016 198.9 90.7016 196.4 93.8016C193.9 96.9016 192.7 100.802 192.7 105.602C192.7 111.302 194.4 115.902 197.7 119.302C201 122.702 206 124.502 212.8 124.502C223 124.502 230.7 120.202 236 111.702C236.1 115.602 237.3 118.702 239.6 121.002C241.9 123.302 246 124.502 251.8 124.502C258 124.502 263.3 122.902 267.7 119.802L266.2 117.202V117.202ZM235.7 108.002C232.6 112.302 229.1 114.502 225 114.502C222.1 114.502 219.7 113.502 217.9 111.402C216.1 109.302 215.2 106.202 215.2 101.802C215.2 96.9016 216.3 93.1016 218.4 90.4016C220.5 87.8016 223.6 85.1016 227.7 82.5016C231.8 80.0016 234.5 77.7016 235.8 75.6016V108.002H235.7V108.002Z" fill="#002B49"/>
<path d="M576.5 195.998C575.3 197.198 574.1 197.698 573.1 197.698C572.3 197.698 571.7 197.298 571.2 196.598C570.7 195.798 570.2 194.598 569.8 192.698L568.1 185.598C567.4 182.798 566.3 180.798 564.7 179.598C563.1 178.398 560.9 177.498 558.1 177.098C557.4 176.998 556.5 176.898 555.4 176.798C560.9 176.098 564.9 174.498 567.3 171.998C569.7 169.498 570.9 166.698 570.9 163.698C570.9 160.198 569.3 157.398 566.3 155.198C563.2 152.998 558.7 151.898 552.9 151.898C551.8 151.898 550.7 151.898 549.9 151.998L541.9 152.098C537.7 152.098 534.6 151.998 532.4 151.898V153.498C534.3 153.598 535.6 153.798 536.5 154.098C537.4 154.398 537.9 154.998 538.3 155.898C538.6 156.798 538.8 158.198 538.8 160.198V191.098C538.8 193.098 538.6 194.498 538.3 195.398C538 196.298 537.4 196.898 536.5 197.198C535.6 197.498 534.3 197.698 532.4 197.798V199.398C534.6 199.198 549.9 199.198 552.3 199.398V197.798C550.4 197.698 549.1 197.498 548.2 197.198C547.3 196.898 546.8 196.298 546.4 195.398C546.1 194.498 545.9 193.098 545.9 191.098V177.398H550.4C553.2 177.398 555.3 177.898 556.8 178.898C558.2 179.898 559.3 181.798 560 184.798L562.4 194.598C563.4 198.598 566.1 200.498 570.4 200.498C572.2 200.498 573.7 200.098 575 199.398C576 198.798 576.8 198.098 577.6 197.198L576.5 195.998V195.998ZM545.9 175.898V160.198C545.9 158.298 546 156.898 546.3 155.998C546.6 155.098 547 154.398 547.7 153.998C548.4 153.598 549.5 153.498 550.9 153.498C555.2 153.498 558.3 154.398 560.2 156.298C562.1 158.098 563.1 160.898 563.1 164.698C563.1 168.298 562.3 171.098 560.6 172.998C558.9 174.998 555.8 175.898 551.2 175.898H545.9V175.898Z" fill="#002B49"/>
<path d="M394.8 196.002C393.6 197.202 392.4 197.802 391.4 197.802C390.6 197.802 390 197.402 389.5 196.702C389 195.902 388.5 194.702 388.1 192.802L386.4 185.702C385.7 182.902 384.6 180.902 383 179.702C381.4 178.502 379.2 177.602 376.4 177.202C375.7 177.102 374.8 177.002 373.7 176.902C379.2 176.202 383.2 174.602 385.6 172.102C388 169.602 389.2 166.802 389.2 163.802C389.2 160.302 387.6 157.502 384.6 155.302C381.5 153.102 377 152.002 371.2 152.002C370.1 152.002 369 152.002 368.2 152.102L360.2 152.202C356 152.202 352.9 152.102 350.7 152.002V153.602C352.6 153.702 353.9 153.902 354.8 154.202C355.7 154.502 356.2 155.102 356.6 156.002C356.9 156.902 357.1 158.302 357.1 160.302V191.202C357.1 193.202 356.9 194.602 356.6 195.502C356.3 196.402 355.7 197.002 354.8 197.302C353.9 197.602 348.1 199.902 345.4 192.902L327.1 151.602H325.9L308.6 190.702C307.7 192.702 306.8 194.402 305.8 195.602C304.8 196.802 303.6 197.602 302.2 198.002V199.602C303.6 199.402 314.5 199.402 316.1 199.602V198.002C314 197.802 312.4 197.302 311.5 196.602C310.5 195.802 310.1 194.802 310.1 193.402C310.1 192.102 310.5 190.402 311.4 188.402L314.1 182.502H333.1L337.1 191.402C337.8 193.002 338.2 194.202 338.2 195.102C338.2 196.102 337.7 196.802 336.8 197.202C335.9 197.602 334.5 197.902 332.5 198.002V199.602C334.7 199.402 368.3 199.402 370.7 199.602V198.002C368.8 197.902 367.5 197.702 366.6 197.402C365.7 197.102 365.2 196.502 364.8 195.602C364.5 194.702 364.3 193.302 364.3 191.302V177.602H368.8C371.6 177.602 373.7 178.102 375.2 179.102C376.6 180.102 377.7 182.002 378.4 185.002L380.8 194.802C381.8 198.802 384.5 200.702 388.8 200.702C390.6 200.702 392.1 200.302 393.4 199.602C394.4 199.002 395.2 198.302 396 197.302L394.8 196.002V196.002ZM314.6 180.802L323.5 161.002L332.3 180.802H314.6ZM364.3 175.902V160.202C364.3 158.302 364.4 156.902 364.7 156.002C365 155.102 365.4 154.402 366.1 154.002C366.8 153.602 367.9 153.502 369.3 153.502C373.6 153.502 376.7 154.402 378.6 156.302C380.5 158.102 381.5 160.902 381.5 164.702C381.5 168.302 380.7 171.102 379 173.002C377.3 175.002 374.2 175.902 369.6 175.902H364.3V175.902Z" fill="#002B49"/>
</g>
<defs>
<clipPath id="clip0_2226_337166">
<rect width="693" height="201" fill="white"/>
</clipPath>
</defs>
</svg>
